<svg xmlns="http://www.w3.org/2000/svg" viewBox="0 0 512 512" xml:space="preserve"><path fill="#AFF078" d="M10 63v373h37l1-373z"/><path fill="#AFF078" d="M10 63h492v373H10z"/><path fill="#5AC779" d="M10 63h492v238H10z"/><path fill="#5AC779" d="M10 63v373h37l1-373z"/><path fill="#00A085" d="M10 63v238h38V63z"/><path d="M464 224v-85c-24 0-43-19-43-42H91c0 23-19 42-43 42v85c24 0 43 19 43 43h330c0-24 19-43 43-43z" fill="#AFF078"/><circle cx="120.315" cy="262.36" r="89.043" fill="#FFD652"/><path d="M150 322a89 89 0 0 1-76-136 89 89 0 1 0 122 123c-13 8-29 13-46 13z" fill="#FB9D46"/><circle cx="323.843" cy="415.006" r="89.043" fill="#FFD652"/><path d="M354 474a89 89 0 0 1-77-135 89 89 0 1 0 123 122c-14 9-29 13-46 13z" fill="#FB9D46"/><circle cx="391.685" cy="96.994" r="89.043" fill="#FFD652"/><path d="M420 157a89 89 0 0 1-75-136 89 89 0 1 0 122 123c-13 8-29 13-47 13z" fill="#FB9D46"/><path d="M502 224c4 0 8-4 8-8V63c0-4-4-8-8-8h-23a97 97 0 0 0-175 0h-25a8 8 0 0 0 0 16h19l-3 18H91c-5 0-8 4-8 8 0 19-16 34-35 34-4 0-8 4-8 8v69a96 96 0 0 0-12 85H18V71h216a8 8 0 0 0 0-16H10c-4 0-8 4-8 8v373c0 5 4 8 8 8h40a8 8 0 0 0 0-16H18v-18h209a98 98 0 0 0 1 18H93a8 8 0 0 0 0 16h138a97 97 0 0 0 185 0h86c4 0 8-3 8-8V256a8 8 0 0 0-16 0v37H212l5-18h204c5 0 8-4 8-8 0-19 15-35 33-35 4 0 8-3 8-8v-68l-1-1a96 96 0 0 0 16-84h9v145c0 4 4 8 8 8zm-382-43a81 81 0 1 1 0 163 81 81 0 0 1 0-163zm124 179H18v-18h48a96 96 0 0 0 109 0h85l-16 18zM33 308h2c3 7 8 13 13 18H18v-18h15zm-15 86v-18h217l-6 18H18zm306 102a81 81 0 1 1 0-162 81 81 0 0 1 0 162zm89-120h81v18h-75l-6-18zm81-16h-90l-16-18h106v18zm-74 68a97 97 0 0 0 1-18h73v18h-74zm74-120v18H366l-2 1a96 96 0 0 0-80 0l-3-1h-88c5-5 9-11 13-18h288zm-80-49H217a97 97 0 0 0-161-69v-43c22-4 39-21 42-42h197a97 97 0 0 0 159 67v45c-20 4-37 21-40 42zm-22-81a81 81 0 1 1 0-162 81 81 0 0 1 0 162z"/><path d="M286 136h-22v-9a8 8 0 0 0-16 0v9h-7c-10 0-18 8-18 18v17c0 10 8 19 18 19h7v22h-22a8 8 0 0 0 0 16h22v9a8 8 0 0 0 16 0v-9h7c10 0 18-8 18-19v-17c0-10-8-18-18-18h-7v-22h22a8 8 0 0 0 0-16zm-15 54 2 2v17c0 2-1 3-2 3h-7v-22h7zm-23-16h-7c-1 0-2-1-2-3v-17l2-2h7v22zM91 310h21v9a8 8 0 0 0 16 0v-9h7c10 0 19-9 19-19v-17c0-10-9-19-19-19h-7v-22h22a8 8 0 0 0 0-16h-22v-9a8 8 0 0 0-16 0v9h-7c-10 0-18 9-18 19v17c0 10 8 18 18 18h7v23H91a8 8 0 0 0 0 16zm14-55-2-2v-17c0-2 1-3 2-3h7v22h-7zm23 16h7c2 0 3 2 3 3v17c0 1-1 3-3 3h-7v-23zm226 99h-22v-9a8 8 0 0 0-16 0v9h-7c-10 0-19 8-19 19v16c0 11 9 19 19 19h7v22h-22a8 8 0 0 0 0 16h22v9a8 8 0 0 0 16 0v-9h7c10 0 18-8 18-18v-17c0-11-8-19-18-19h-7v-22h22a8 8 0 0 0 0-16zm-15 54c1 0 2 1 2 3v17l-2 2h-7v-22h7zm-23-16h-7c-1 0-3-1-3-3v-16c0-2 2-3 3-3h7v22zM421 52h-21v-9a8 8 0 0 0-16 0v9h-7c-10 0-19 8-19 18v17c0 11 9 19 19 19h7v22h-22a8 8 0 0 0 0 16h22v9a8 8 0 0 0 16 0v-9h7c10 0 18-8 18-18v-17c0-11-8-19-18-19h-7V68h21a8 8 0 0 0 0-16zm-14 54c1 0 2 1 2 3v17l-2 2h-7v-22h7zm-23-16h-7c-2 0-3-1-3-3V70c0-1 1-2 3-2h7v22z"/></svg>
