<svg xmlns="http://www.w3.org/2000/svg" xml:space="preserve" viewBox="0 0 460 460">
  <path fill="#ffd248" d="M230 100a125 125 0 1 1 0 250 125 125 0 0 1 0-250z"/>
  <path fill="#afb6bb" d="M450 185v90h-41c-4 18-11 35-20 50l28 29-63 63-29-28c-15 9-32 16-50 20v41h-90v-41c-18-4-35-11-50-20l-29 28-63-63 28-29c-9-15-16-32-20-50H10v-90h41c4-18 11-35 20-50l-28-29 63-63 29 28c15-9 32-16 50-20V10h90v41c18 4 35 11 50 20l29-28 63 63-28 29c9 15 16 32 20 50h41zm-95 40a125 125 0 1 0-250 0 125 125 0 0 0 250 0z"/>
  <path fill="#fdc447" d="M230 135a90 90 0 1 1 0 180 90 90 0 0 1 0-180z"/>
  <g fill="#231f20">
    <path d="M450 175h-33c-4-13-9-26-16-38l23-24c4-4 4-10 0-14l-63-63c-4-4-10-4-14 0l-24 23c-12-7-25-12-38-16V10c0-6-4-10-10-10h-90c-6 0-10 4-10 10v33c-13 4-26 9-38 16l-24-23c-4-4-10-4-14 0L36 99c-4 4-4 10 0 14l23 24c-7 12-12 25-16 38H10c-6 0-10 4-10 10v90c0 6 4 10 10 10h33c4 13 9 26 16 38l-23 24c-2 2-3 4-3 7s1 5 3 7l63 63c4 4 10 4 14 0l24-23c12 7 25 12 38 16v33c0 6 4 10 10 10h90c6 0 10-4 10-10v-33c13-4 26-9 38-16l24 23c4 4 10 4 14 0l63-63c4-4 4-10 0-14l-23-24c7-12 12-25 16-38h33c6 0 10-4 10-10v-90c0-6-4-10-10-10zm-10 90h-31c-4 0-8 3-9 8-5 16-11 32-20 47-2 4-2 9 2 12l21 22-49 49-22-21c-3-4-8-4-12-2-15 9-31 15-47 20-5 1-8 5-8 9v31h-70v-31c0-4-3-8-8-9-16-5-32-11-47-20-4-2-9-2-12 2l-22 21-49-49 21-22c4-3 4-8 2-12-9-15-15-31-20-47-1-5-5-8-9-8H20v-70h31c4 0 8-3 9-8 5-16 11-32 20-47 2-4 2-9-2-12l-21-22 49-49 22 21c3 4 8 4 12 2 15-9 31-15 47-20 5-1 8-5 8-9V20h70v31c0 4 3 8 8 9 16 5 32 11 47 20 4 2 9 2 12-2l22-21 49 49-21 22c-4 3-4 8-2 12 9 15 15 31 20 47 1 5 5 8 9 8h31v70z"/>
    <path d="M230 90a135 135 0 1 0 0 270 135 135 0 0 0 0-270zm0 250a115 115 0 1 1 0-230 115 115 0 0 1 0 230z"/>
    <path d="M245 175h-5v-15h-20v15h-5c-11 0-20 9-20 20v20c0 11 9 20 20 20h30v20h-30v-10h-20v10c0 11 9 20 20 20h5v15h20v-15h5c11 0 20-9 20-20v-20c0-11-9-20-20-20h-30v-20h30v10h20v-10c0-11-9-20-20-20zm50 40h20v20h-20zm-150 0h20v20h-20z"/>
  </g>
</svg>
