<svg xmlns="http://www.w3.org/2000/svg" xml:space="preserve" viewBox="0 0 482 482">
  <path d="M381.163,57.799h-75.094C302.323,25.316,274.686,0,241.214,0c-33.471,0-61.104,25.315-64.85,57.799h-75.098 c-30.39,0-55.111,24.728-55.111,55.117v2.828c0,23.223,14.46,43.1,34.83,51.199v260.369c0,30.39,24.724,55.117,55.112,55.117 h210.236c30.389,0,55.111-24.729,55.111-55.117V166.944c20.369-8.1,34.83-27.977,34.83-51.199v-2.828 C436.274,82.527,411.551,57.799,381.163,57.799z M241.214,26.139c19.037,0,34.927,13.645,38.443,31.66h-76.879 C206.293,39.783,222.184,26.139,241.214,26.139z M375.305,427.312c0,15.978-13,28.979-28.973,28.979H136.096 c-15.973,0-28.973-13.002-28.973-28.979V170.861h268.182V427.312z M410.135,115.744c0,15.978-13,28.979-28.973,28.979H101.266 c-15.973,0-28.973-13.001-28.973-28.979v-2.828c0-15.978,13-28.979,28.973-28.979h279.897c15.973,0,28.973,13.001,28.973,28.979 V115.744z"/>
  <path d="M171 423c7 0 13-6 13-13V263c0-7-6-13-13-13-7 0-13 6-13 13v147C158 417 164 423 171 423zM241 423c7 0 13-6 13-13V263c0-7-6-13-13-13-7 0-13 6-13 13v147C228 417 234 423 241 423zM311 423c7 0 13-6 13-13V263c0-7-6-13-13-13-7 0-13 6-13 13v147C298 417 304 423 311 423z"/>
</svg>
